<svg xmlns="http://www.w3.org/2000/svg" viewBox="0 0 1000 600" preserveAspectRatio="none"><g fill="#fff"><circle cx="18" cy="28" r="1.2"/><circle cx="58" cy="84" r="1" opacity=".7"/><circle cx="102" cy="186" r="1.4"/><circle cx="143" cy="42" r="1" opacity=".65"/><circle cx="177" cy="126" r="1.2"/><circle cx="214" cy="278" r="1" opacity=".7"/><circle cx="248" cy="92" r="1.3"/><circle cx="286" cy="204" r="1"/><circle cx="322" cy="18" r="1.2" opacity=".75"/><circle cx="357" cy="98" r="1"/><circle cx="394" cy="272" r="1.3"/><circle cx="432" cy="62" r="1"/><circle cx="468" cy="168" r="1.2"/><circle cx="505" cy="34" r="1"/><circle cx="544" cy="246" r="1.4"/><circle cx="582" cy="128" r="1"/><circle cx="619" cy="282" r="1.1"/><circle cx="657" cy="74" r="1.3"/><circle cx="694" cy="194" r="1"/><circle cx="732" cy="20" r="1.2"/><circle cx="769" cy="112" r="1"/><circle cx="807" cy="262" r="1.3"/><circle cx="844" cy="156" r="1"/><circle cx="882" cy="52" r="1.1"/><circle cx="921" cy="236" r="1.3"/><circle cx="962" cy="104" r="1"/><circle cx="35" cy="342" r="1"/><circle cx="78" cy="426" r="1.3"/><circle cx="124" cy="516" r="1"/><circle cx="164" cy="364" r="1.2"/><circle cx="205" cy="584" r="1"/><circle cx="246" cy="454" r="1.3"/><circle cx="292" cy="326" r="1"/><circle cx="331" cy="548" r="1.1"/><circle cx="369" cy="402" r="1.4"/><circle cx="414" cy="332" r="1"/><circle cx="458" cy="512" r="1.2"/><circle cx="497" cy="384" r="1"/><circle cx="536" cy="574" r="1.3"/><circle cx="575" cy="436" r="1"/><circle cx="614" cy="348" r="1.2"/><circle cx="651" cy="526" r="1"/><circle cx="691" cy="414" r="1.4"/><circle cx="728" cy="566" r="1"/><circle cx="766" cy="372" r="1.2"/><circle cx="804" cy="488" r="1"/><circle cx="846" cy="338" r="1.3"/><circle cx="887" cy="542" r="1"/><circle cx="928" cy="396" r="1.2"/><circle cx="972" cy="474" r="1"/></g></svg>