<svg width="300" height="300" viewBox="0 0 300 300" fill="none" xmlns="http://www.w3.org/2000/svg">
<rect width="300" height="300" fill="#F7F7F7"/>
<path d="M62.5 183.25C61.75 179.25 58.5 169.5 56 164.25C65.25 163 76.75 157.5 93 148.75C110.75 140 166.25 106.25 208.75 68.75L225.75 81.5C178 121.25 126.5 152.5 77.25 174.5V175C77.25 175 62.5 179.25 62.5 183.25ZM62.5 183.25L62 168.25L75.5 161L222 150.5C219.25 155.5 216.5 163.75 215.25 167.75C85.25 178 71.5 179.75 62.5 183.25ZM70.5 120.75C69.5 116.75 66.5 107 64.5 101.75C70.5 100.75 77.5 96.25 86.5 90C96.25 83.25 127.5 58 150 32L167.5 43C141.5 69.5 112.25 94 84.25 110.75V111.25C84.25 111.25 70.5 116.75 70.5 120.75ZM70.5 120.75L70 106.75L81.25 100.75L183.75 93.75C182 98.75 180.5 105.75 180.25 109.75C87.5 116.75 77.25 118.25 70.5 120.75ZM227.5 127L248 133.75C214 210.25 146.5 243.25 53.25 260.5C51.5 255.25 46.25 246 42.75 241.25C134.25 227.5 199 197 227.5 127Z" fill="#581C87"/>
</svg>
