<?xml version="1.0" encoding="UTF-8"?>
<svg xmlns="http://www.w3.org/2000/svg"
     width="128"
     height="128"
     viewBox="0 0 140.514 122"
     preserveAspectRatio="xMidYMid">
  <path
    fill="#60A5FA"
    d="M70.256 0L38.958 54.207c11.876-3.661 24.652-4.204 37.036-1.283L86.57 55.42l-9.95 42.198l-10.593-2.498c-8.137-1.92-16.619-.017-23.179 5.169a27.3 27.3 0 0 0-7.638 9.509l-9.79-4.737a38.2 38.2 0 0 1 10.672-13.3a38.12 38.12 0 0 1 32.438-7.223l4.961-21.031A59.8 59.8 0 0 0 22.677 74.82A59.79 59.79 0 0 0 0 121.68l140.514.004z"
  />
</svg>
