<?xml version="1.0" encoding="UTF-8"?>
<svg version="1.1" xmlns="http://www.w3.org/2000/svg" width="200" height="200">
<path d="M0 0 C7.68423567 3.18991321 14.84906219 7.7222581 22 11.9375 C23.01578125 12.53240234 24.0315625 13.12730469 25.078125 13.74023438 C28.05603014 15.48689027 31.02862763 17.24225862 34 19 C34.95181152 19.55913086 35.90362305 20.11826172 36.88427734 20.69433594 C37.7758252 21.22188477 38.66737305 21.74943359 39.5859375 22.29296875 C40.37532715 22.75856201 41.1647168 23.22415527 41.97802734 23.70385742 C44.77671184 25.49789461 46.45019743 27.041286 48 30 C48.82608689 34.30619763 48.54427066 37.10584106 46.25 40.875 C43.02775893 43.91822767 41.30276732 44.87523248 36.859375 45.30078125 C32.02738419 44.92419897 29.15882465 43.32615614 25.0625 40.875 C24.30759277 40.43776611 23.55268555 40.00053223 22.77490234 39.55004883 C21.10405536 38.58027409 19.43691255 37.60409755 17.77294922 36.62255859 C14.7418439 34.848943 11.6875209 33.12024445 8.62890625 31.39453125 C6.46044644 30.15971611 4.29247276 28.92404689 2.125 27.6875 C1.08480713 27.10145996 0.04461426 26.51541992 -1.02709961 25.91162109 C-2.00557861 25.34652832 -2.98405762 24.78143555 -3.9921875 24.19921875 C-5.29712158 23.45418091 -5.29712158 23.45418091 -6.62841797 22.6940918 C-9.9028492 20.35506788 -12.20070027 17.59859946 -14 14 C-14.59968751 8.72274989 -13.27164725 6.11292798 -10 2 C-6.15434323 -0.56377118 -4.58969584 -0.5099662 0 0 Z " fill="#4687F3" transform="translate(44,89)"/>
<path d="M0 0 C4.2521874 1.6947911 8.08399599 3.9551106 12 6.3125 C13.08490723 6.94462402 14.16981445 7.57674805 15.28759766 8.22802734 C18.53814027 10.1308424 21.76949809 12.06341131 25 14 C26.84047105 15.08057721 28.68156818 16.16008915 30.5234375 17.23828125 C32.14196896 18.19825852 33.75924692 19.16035374 35.375 20.125 C36.11105469 20.56110596 36.84710938 20.99721191 37.60546875 21.4465332 C43.98627371 25.34684599 43.98627371 25.34684599 46 29 C46.56172694 33.33332214 46.29780107 35.45574287 44.1875 39.3125 C41.25932321 42.90997434 39.72944287 43.89548063 35.1015625 44.55859375 C28.28534411 44.39197508 23.02407599 40.53828411 17.375 37.0625 C16.21957767 36.36895278 15.06315681 35.67706644 13.90576172 34.98681641 C11.63072717 33.62648151 9.36389046 32.25488057 7.09960938 30.87646484 C4.45397179 29.27482886 1.79342985 27.71173335 -0.890625 26.17578125 C-11.90362964 19.81657611 -11.90362964 19.81657611 -15 15 C-16.10690212 10.11436306 -15.69749357 6.16248928 -13.125 1.875 C-8.66877076 -0.79873754 -5.09251164 -0.80952087 0 0 Z " fill="#139E58" transform="translate(124,67)"/>
<path d="M0 0 C3.11593195 1.69902929 5.38899662 3.77799325 7 7 C7.125 8.953125 7.125 8.953125 7 11.25 C6.979375 11.99765625 6.95875 12.7453125 6.9375 13.515625 C4.30456589 20.49290039 -4.57093505 24.40633624 -10.6875 27.9375 C-11.52861328 28.44345703 -12.36972656 28.94941406 -13.23632812 29.47070312 C-14.04908203 29.94314453 -14.86183594 30.41558594 -15.69921875 30.90234375 C-16.42971436 31.33023193 -17.16020996 31.75812012 -17.9128418 32.19897461 C-20.45292083 33.17382539 -21.48977653 32.96559273 -24 32 C-26.28031636 30.72223652 -28.51606702 29.41589156 -30.75 28.0625 C-35.75661071 25.10102655 -40.22763793 22.92357793 -46 22 C-42.58200412 19.13744307 -39.15887658 16.83313733 -35.25390625 14.6875 C-34.16916016 14.08679688 -33.08441406 13.48609375 -31.96679688 12.8671875 C-30.84337891 12.25101563 -29.71996094 11.63484375 -28.5625 11 C-26.33336381 9.77314094 -24.10545901 8.54404135 -21.87890625 7.3125 C-20.32453857 6.45289673 -20.32453857 6.45289673 -18.73876953 5.57592773 C-16.57550204 4.33115222 -14.55217616 3.04845158 -12.52734375 1.59765625 C-8.44486017 -0.98307912 -4.66217615 -0.89918794 0 0 Z " fill="#E94639" transform="translate(85,67)"/>
<path d="M0 0 C2.95692227 1.84802949 5.53643889 3.849088 8.1730957 6.1394043 C11.61760307 8.43574254 14.11121853 8.67956915 18.1730957 9.1394043 C15.54298374 12.14121263 12.45593305 13.83852993 9.0012207 15.79174805 C8.10025665 16.30385582 8.10025665 16.30385582 7.18109131 16.8263092 C5.26432146 17.91443691 3.3438194 18.99577405 1.4230957 20.0769043 C0.14679887 20.79976125 -1.12924547 21.52306419 -2.4050293 22.24682617 C-4.77164936 23.58872355 -7.13994535 24.9274718 -9.50952148 26.26416016 C-11.25184818 27.24905943 -12.99298584 28.23628721 -14.72177124 29.24476624 C-19.77153339 32.18352467 -22.07295368 32.97465519 -27.8269043 32.1394043 C-31.00712498 29.56816204 -33.56365024 27.33606517 -34.06518555 23.15112305 C-34.08967773 22.38413086 -34.11416992 21.61713867 -34.1394043 20.8269043 C-34.17678711 20.06764648 -34.21416992 19.30838867 -34.25268555 18.52612305 C-33.51516303 14.39193717 -30.68246362 11.8334188 -27.49951172 9.25146484 C-8.03010059 -3.83368289 -8.03010059 -3.83368289 0 0 Z " fill="#F9BB08" transform="translate(142.826904296875,101.860595703125)"/>
</svg>
